<svg width="60" height="60" viewBox="0 0 60 60" fill="none" xmlns="http://www.w3.org/2000/svg">
<circle cx="30" cy="30" r="30" fill="#F6F6F6"/>
<g clip-path="url(#clip0_1_256)">
<path d="M30.1853 18.038C29.9983 17.9607 29.7832 18.0037 29.6403 18.147L20.6403 27.147C20.4484 27.3456 20.454 27.6622 20.6526 27.854C20.8464 28.0411 21.1535 28.0411 21.3473 27.854L29.4943 19.707V41.5C29.4943 41.7761 29.7182 42 29.9943 42C30.2705 42 30.4944 41.7761 30.4944 41.5V19.707L38.6403 27.853C38.8322 28.0516 39.1487 28.0571 39.3474 27.8653C39.546 27.6734 39.5515 27.3569 39.3596 27.1583C39.3556 27.1541 39.3515 27.15 39.3474 27.146L30.3474 18.146C30.3009 18.0998 30.2459 18.063 30.1853 18.038Z" fill="#1919EF"/>
<path d="M39.4944 27.5001C39.4949 27.7762 39.2714 28.0005 38.9952 28.001C38.8621 28.0012 38.7344 27.9483 38.6404 27.8541L29.9944 19.207L21.3484 27.8541C21.1498 28.0459 20.8332 28.0404 20.6414 27.8418C20.4543 27.648 20.4543 27.3408 20.6414 27.1471L29.6414 18.1471C29.8366 17.9519 30.1531 17.9519 30.3484 18.1471L39.3484 27.1471C39.4419 27.2408 39.4944 27.3677 39.4944 27.5001Z" fill="#1919EF"/>
<path d="M30.4944 18.5V41.5C30.4944 41.7761 30.2705 42 29.9944 42C29.7183 42 29.4944 41.7761 29.4944 41.5V18.5C29.4944 18.2238 29.7183 18 29.9944 18C30.2705 18 30.4944 18.2239 30.4944 18.5Z" fill="#1919EF"/>
</g>
<defs>
<clipPath id="clip0_1_256">
<rect width="24" height="24" fill="white" transform="matrix(0 -1 1 0 18 42)"/>
</clipPath>
</defs>
</svg>
